<?xml version="1.0" encoding="UTF-8" standalone="no"?>
<!-- Created with Inkscape (http://www.inkscape.org/) -->

<svg
   xmlns:dc="http://purl.org/dc/elements/1.1/"
   xmlns:cc="http://creativecommons.org/ns#"
   xmlns:rdf="http://www.w3.org/1999/02/22-rdf-syntax-ns#"
   xmlns:svg="http://www.w3.org/2000/svg"
   xmlns="http://www.w3.org/2000/svg"
   xmlns:sodipodi="http://sodipodi.sourceforge.net/DTD/sodipodi-0.dtd"
   xmlns:inkscape="http://www.inkscape.org/namespaces/inkscape"
   width="210mm"
   height="297mm"
   viewBox="0 0 210 297"
   version="1.1"
   id="svg8"
   inkscape:version="0.92.5 (2060ec1f9f, 2020-04-08)"
   sodipodi:docname="logo2.svg"
   inkscape:export-filename="/home/matschke/Save/projects/numberdb/numberdb-website/static/update.png"
   inkscape:export-xdpi="99.989998"
   inkscape:export-ydpi="99.989998">
  <defs
     id="defs2">
    <inkscape:path-effect
       effect="bspline"
       id="path-effect2586"
       is_visible="true"
       weight="33.333333"
       steps="2"
       helper_size="0"
       apply_no_weight="true"
       apply_with_weight="true"
       only_selected="false" />
    <inkscape:path-effect
       effect="bspline"
       id="path-effect2582"
       is_visible="true"
       weight="33.333333"
       steps="2"
       helper_size="0"
       apply_no_weight="true"
       apply_with_weight="true"
       only_selected="false" />
    <inkscape:path-effect
       effect="spiro"
       id="path-effect2578"
       is_visible="true" />
    <inkscape:path-effect
       effect="bspline"
       id="path-effect849"
       is_visible="true"
       weight="33.333333"
       steps="2"
       helper_size="0"
       apply_no_weight="true"
       apply_with_weight="true"
       only_selected="false" />
    <inkscape:path-effect
       effect="spiro"
       id="path-effect845"
       is_visible="true" />
    <inkscape:path-effect
       effect="spiro"
       id="path-effect841"
       is_visible="true" />
    <inkscape:path-effect
       effect="spiro"
       id="path-effect837"
       is_visible="true" />
    <inkscape:path-effect
       effect="bspline"
       id="path-effect833"
       is_visible="true"
       weight="33.333333"
       steps="2"
       helper_size="0"
       apply_no_weight="true"
       apply_with_weight="true"
       only_selected="false" />
    <inkscape:path-effect
       effect="bspline"
       id="path-effect829"
       is_visible="true"
       weight="33.333333"
       steps="2"
       helper_size="0"
       apply_no_weight="true"
       apply_with_weight="true"
       only_selected="false" />
    <inkscape:path-effect
       effect="bspline"
       id="path-effect825"
       is_visible="true"
       weight="33.333333"
       steps="2"
       helper_size="0"
       apply_no_weight="true"
       apply_with_weight="true"
       only_selected="false" />
    <inkscape:path-effect
       effect="bspline"
       id="path-effect821"
       is_visible="true"
       weight="33.333333"
       steps="2"
       helper_size="0"
       apply_no_weight="true"
       apply_with_weight="true"
       only_selected="false" />
    <inkscape:path-effect
       effect="spiro"
       id="path-effect817"
       is_visible="true" />
  </defs>
  <sodipodi:namedview
     id="base"
     pagecolor="#ffffff"
     bordercolor="#666666"
     borderopacity="1.0"
     inkscape:pageopacity="0.0"
     inkscape:pageshadow="2"
     inkscape:zoom="0.98994949"
     inkscape:cx="410.57888"
     inkscape:cy="578.38815"
     inkscape:document-units="mm"
     inkscape:current-layer="layer1"
     showgrid="false"
     inkscape:window-width="1366"
     inkscape:window-height="713"
     inkscape:window-x="0"
     inkscape:window-y="0"
     inkscape:window-maximized="1"
     inkscape:snap-nodes="false"
     inkscape:snap-others="false"
     inkscape:snap-global="false"
     showguides="false" />
  <metadata
     id="metadata5">
    <rdf:RDF>
      <cc:Work
         rdf:about="">
        <dc:format>image/svg+xml</dc:format>
        <dc:type
           rdf:resource="http://purl.org/dc/dcmitype/StillImage" />
        <dc:title></dc:title>
      </cc:Work>
    </rdf:RDF>
  </metadata>
  <g
     inkscape:label="Layer 1"
     inkscape:groupmode="layer"
     id="layer1">
    <rect
       style="fill:#ffffff;fill-opacity:1;stroke:none;stroke-width:0.5;stroke-linecap:round;stroke-linejoin:round;stroke-miterlimit:4;stroke-dasharray:none;stroke-dashoffset:0;stroke-opacity:1"
       id="rect2424"
       width="94.494049"
       height="155.72618"
       x="167.06549"
       y="281.88095" />
    <path
       style="fill:none;stroke:#000000;stroke-width:0.5;stroke-linecap:butt;stroke-linejoin:miter;stroke-miterlimit:4;stroke-dasharray:none;stroke-opacity:1"
       d="m 62.366071,157.3378 c 0,0 -1.274666,1.93547 -3.02381,5.10268 -4.425482,8.01331 -12.52445,32.96658 -2.26786,39.12053 5.57524,3.34515 14.32931,2.90362 21.16666,2.83482 12.45221,-0.15539 58.620239,4.06955 64.255959,-10.58333 2.74097,-7.12651 1.3386,-14.4369 -0.75595,-21.35565 -4.65255,-15.36841 -10.20536,-17.4662 -13.04018,-20.59971"
       id="path865"
       inkscape:connector-curvature="0"
       sodipodi:nodetypes="csccssc" />
    <flowRoot
       xml:space="preserve"
       id="flowRoot2245"
       style="fill:black;fill-opacity:1;stroke:none;font-family:sans-serif;font-style:normal;font-weight:normal;font-size:40px;line-height:1.25;letter-spacing:0px;word-spacing:0px"><flowRegion
         id="flowRegion2247"><rect
           id="rect2249"
           width="133.57143"
           height="107.14286"
           x="270.71429"
           y="308.23395" /></flowRegion><flowPara
         id="flowPara2251"></flowPara></flowRoot>    <flowRoot
       xml:space="preserve"
       id="flowRoot2253"
       style="fill:black;fill-opacity:1;stroke:none;font-family:sans-serif;font-style:normal;font-weight:normal;font-size:40px;line-height:1.25;letter-spacing:0px;word-spacing:0px"><flowRegion
         id="flowRegion2255"><rect
           id="rect2257"
           width="208.38785"
           height="100.26964"
           x="117.14286"
           y="262.51965" /></flowRegion><flowPara
         id="flowPara2259"></flowPara></flowRoot>    <path
       style="fill:none;stroke:#000000;stroke-width:0.26908446;stroke-linecap:butt;stroke-linejoin:miter;stroke-opacity:1;stroke-miterlimit:4;stroke-dasharray:2.15267565,2.15267565;stroke-dashoffset:0"
       d="m 55.5625,196.8363 c 0.366101,-7.06786 78.66882,-9.8147 79.75297,2.26785"
       id="path2535"
       inkscape:connector-curvature="0"
       sodipodi:nodetypes="cc" />
    <ellipse
       style="fill:#ffffff;fill-opacity:1;stroke:none;stroke-width:0.26908445;stroke-linecap:round;stroke-linejoin:round;stroke-miterlimit:4;stroke-dasharray:2.15267562, 2.15267562;stroke-dashoffset:0;stroke-opacity:1"
       id="path2537"
       cx="82.682289"
       cy="191.16666"
       rx="5.7641373"
       ry="2.6458333" />
    <ellipse
       style="fill:#ffffff;fill-opacity:1;stroke:none;stroke-width:0.26908445;stroke-linecap:round;stroke-linejoin:round;stroke-miterlimit:4;stroke-dasharray:2.15267562, 2.15267562;stroke-dashoffset:0;stroke-opacity:1"
       id="path2539"
       cx="108.0067"
       cy="191.07217"
       rx="4.2522321"
       ry="1.6063988" />
    <ellipse
       style="fill:#ffffff;fill-opacity:1;stroke:none;stroke-width:0.57114989;stroke-linecap:round;stroke-linejoin:round;stroke-miterlimit:4;stroke-dasharray:none;stroke-dashoffset:0;stroke-opacity:1"
       id="path2403"
       cx="34.454201"
       cy="214.70699"
       rx="3.6636231"
       ry="4.2742267"
       transform="rotate(-20.477806)" />
    <g
       id="g1868"
       transform="matrix(0.67679256,-0.25274361,0.25274361,0.67679256,-62.132307,103.53203)">
      <g
         word-spacing="normal"
         letter-spacing="normal"
         font-size-adjust="none"
         font-stretch="normal"
         font-weight="normal"
         font-variant="normal"
         font-style="normal"
         stroke-miterlimit="10.433"
         xml:space="preserve"
         transform="matrix(0.25768633,0.1536156,0.1536156,-0.25768633,-21.855097,216.3248)"
         id="g1866"
         style="font-style:normal;font-variant:normal;font-weight:normal;font-stretch:normal;letter-spacing:normal;word-spacing:normal;text-anchor:start;fill:none;fill-opacity:1;fill-rule:evenodd;stroke:#000000;stroke-linecap:butt;stroke-linejoin:miter;stroke-miterlimit:10.43299961;stroke-dasharray:none;stroke-dashoffset:0;stroke-opacity:1"
         inkscape:transform-center-x="23.434524"
         inkscape:transform-center-y="-37.986607"><path
           id="path1864"
           d="m 478.19,431.11 v 0.31 l -0.01,0.34 -0.02,0.36 -0.02,0.37 -0.03,0.39 -0.04,0.39 -0.04,0.41 -0.06,0.41 -0.07,0.42 -0.07,0.43 -0.09,0.42 -0.1,0.43 -0.12,0.42 -0.12,0.42 -0.14,0.41 -0.16,0.41 -0.17,0.4 -0.18,0.38 -0.2,0.37 -0.22,0.36 -0.23,0.34 -0.25,0.32 -0.28,0.3 -0.29,0.27 -0.31,0.25 -0.16,0.12 -0.17,0.1 -0.17,0.1 -0.18,0.1 -0.18,0.08 -0.19,0.08 -0.19,0.07 -0.2,0.06 -0.21,0.05 -0.21,0.05 -0.22,0.03 -0.22,0.02 -0.23,0.02 h -0.23 l -0.05,-1.09 c 2.44,0 2.73,-3.19 2.73,-6.03 0,-2.44 -0.39,-4.99 -1.59,-9.92 h -10.41 c 0.85,3.2 1.85,7.18 3.83,10.72 1.36,2.43 3.19,5.23 5.44,5.23 l 0.05,1.09 c -6.92,0 -14.6,-14.04 -14.6,-25.45 0,-4.69 1.44,-10.22 5.99,-10.22 v 1.1 c -1.66,0 -2.71,1.45 -2.71,6.07 0,2.1 0.3,4.99 1.6,9.86 h 10.37 c -0.54,-2.28 -1.59,-6.51 -3.5,-10.11 -1.73,-3.39 -3.62,-5.82 -5.76,-5.82 v -1.1 c 7.01,0 14.59,14.3 14.59,25.46 z"
           inkscape:connector-curvature="0"
           style="fill:#000000;stroke-width:0" /></g>    </g>
    <ellipse
       style="fill:#ffffff;fill-opacity:1;stroke:none;stroke-width:0.40328825;stroke-linecap:round;stroke-linejoin:round;stroke-miterlimit:4;stroke-dasharray:none;stroke-dashoffset:0;stroke-opacity:1"
       id="path2401"
       cx="10.182711"
       cy="211.50131"
       rx="3.2056701"
       ry="3.8162739"
       transform="rotate(-20.477806)" />
    <g
       id="g997"
       transform="matrix(0.82905914,-0.30960653,0.30960653,0.82905914,12.686411,128.9613)">
      <g
         word-spacing="normal"
         letter-spacing="normal"
         font-size-adjust="none"
         font-stretch="normal"
         font-weight="normal"
         font-variant="normal"
         font-style="normal"
         stroke-miterlimit="10.433"
         xml:space="preserve"
         transform="matrix(0.3,0,0,-0.3,-52.5,222.75)"
         id="content"
         style="font-style:normal;font-variant:normal;font-weight:normal;font-stretch:normal;letter-spacing:normal;word-spacing:normal;text-anchor:start;fill:none;fill-opacity:1;fill-rule:evenodd;stroke:#000000;stroke-linecap:butt;stroke-linejoin:miter;stroke-miterlimit:10.43299961;stroke-dasharray:none;stroke-dashoffset:0;stroke-opacity:1"><path
           id="path994"
           d="m 478.44,422.14 v 0.74 l -0.01,0.75 -0.02,0.75 -0.04,0.74 -0.04,0.75 -0.06,0.74 -0.08,0.74 -0.09,0.73 -0.12,0.73 -0.14,0.73 -0.16,0.72 -0.19,0.72 -0.21,0.72 -0.25,0.7 -0.28,0.7 -0.15,0.35 -0.16,0.34 c -2.28,4.8 -6.37,5.6 -8.47,5.6 -2.98,0 -6.62,-1.3 -8.67,-5.94 -1.59,-3.44 -1.84,-7.33 -1.84,-11.31 0,-3.74 0.2,-8.22 2.25,-12 2.14,-4.03 5.78,-5.03 8.22,-5.03 v 1.09 c -1.94,0 -4.89,1.25 -5.79,6.03 -0.54,2.98 -0.54,7.56 -0.54,10.52 0,3.18 0,6.46 0.4,9.15 0.94,5.94 4.68,6.38 5.93,6.38 1.64,0 4.93,-0.89 5.87,-5.83 0.5,-2.78 0.5,-6.58 0.5,-9.7 0,-3.75 0,-7.13 -0.55,-10.32 -0.75,-4.73 -3.59,-6.23 -5.82,-6.23 v 0 -1.09 c 2.68,0 6.46,1.04 8.67,5.78 1.59,3.43 1.84,7.31 1.84,11.25 z"
           inkscape:connector-curvature="0"
           style="fill:#000000;stroke-width:0" /></g>    </g>
    <g
       id="g1153"
       transform="matrix(0.49036253,-0.7367088,0.7367088,0.49036253,6.3253024,185.02648)">
      <g
         word-spacing="normal"
         letter-spacing="normal"
         font-size-adjust="none"
         font-stretch="normal"
         font-weight="normal"
         font-variant="normal"
         font-style="normal"
         stroke-miterlimit="10.433"
         xml:space="preserve"
         transform="matrix(0.3,0,0,-0.3,-52.5,222.75)"
         id="g1151"
         style="font-style:normal;font-variant:normal;font-weight:normal;font-stretch:normal;letter-spacing:normal;word-spacing:normal;text-anchor:start;fill:none;fill-opacity:1;fill-rule:evenodd;stroke:#000000;stroke-linecap:butt;stroke-linejoin:miter;stroke-miterlimit:10.43299961;stroke-dasharray:none;stroke-dashoffset:0;stroke-opacity:1"><path
           id="path1149"
           d="m 469.97,423.73 0.38,0.13 0.37,0.15 0.37,0.15 0.35,0.17 0.35,0.18 0.34,0.19 0.33,0.2 0.32,0.22 0.31,0.22 0.31,0.23 0.29,0.24 0.28,0.25 0.27,0.26 0.26,0.27 0.25,0.27 0.24,0.29 0.22,0.29 0.21,0.3 0.2,0.3 0.19,0.32 0.18,0.32 0.16,0.32 0.14,0.33 0.14,0.34 0.11,0.34 0.11,0.34 0.09,0.35 0.07,0.36 0.06,0.36 0.04,0.36 0.02,0.36 0.01,0.37 c 0,4.08 -4.39,6.88 -9.17,6.88 -5.03,0 -8.81,-3 -8.81,-6.78 0,-1.65 1.09,-2.6 2.54,-2.6 1.54,0 2.54,1.1 2.54,2.55 0,2.48 -2.35,2.48 -3.08,2.48 1.53,2.44 4.83,3.1 6.62,3.1 2.03,0 4.78,-1.1 4.78,-5.58 0,-0.61 -0.11,-3.49 -1.4,-5.69 -1.49,-2.39 -3.19,-2.53 -4.42,-2.59 -0.41,-0.05 -1.6,-0.14 -1.96,-0.14 -0.39,-0.05 -0.75,-0.1 -0.75,-0.6 0,-0.54 0.36,-0.54 1.21,-0.54 h 2.18 c 4.1,0 5.94,-3.39 5.94,-8.29 0,-6.76 -3.44,-8.21 -5.64,-8.21 -2.14,0 -5.88,0.84 -7.61,3.78 1.73,-0.24 3.28,0.86 3.28,2.75 0,1.79 -1.34,2.78 -2.8,2.78 -1.18,0 -2.78,-0.69 -2.78,-2.89 0,-4.53 4.63,-7.81 10.07,-7.81 6.07,0 10.61,4.53 10.61,9.6 0,4.1 -3.15,7.97 -8.32,9.02 z"
           inkscape:connector-curvature="0"
           style="fill:#000000;stroke-width:0" /></g>    </g>
    <g
       id="g1622"
       transform="matrix(0.82905914,-0.30960653,0.30960653,0.82905914,8.5206754,103.04587)">
      <g
         word-spacing="normal"
         letter-spacing="normal"
         font-size-adjust="none"
         font-stretch="normal"
         font-weight="normal"
         font-variant="normal"
         font-style="normal"
         stroke-miterlimit="10.433"
         xml:space="preserve"
         transform="matrix(0.3,0,0,-0.3,-52.5,222.75)"
         id="g1620"
         style="font-style:normal;font-variant:normal;font-weight:normal;font-stretch:normal;letter-spacing:normal;word-spacing:normal;text-anchor:start;fill:none;fill-opacity:1;fill-rule:evenodd;stroke:#000000;stroke-linecap:butt;stroke-linejoin:miter;stroke-miterlimit:10.43299961;stroke-dasharray:none;stroke-dashoffset:0;stroke-opacity:1"><path
           id="path1618"
           d="m 475.68223,422.95852 3.501,-4.40907 c -6.79938,-3.3049 -8.76134,-4.27541 -11.36919,-6.34617 -0.58735,-0.46638 -1.63676,-1.29966 -2.71313,-2.67789 -1.40415,-1.75342 -1.29707,-2.3707 -0.83069,-2.95805 0.60942,-0.76748 1.95935,-1.03632 2.74249,-0.41447 0.23494,0.18655 0.32108,0.25495 0.67489,0.91897 1.916,3.36016 4.44554,5.36873 5.54193,6.23932 2.06748,1.64168 4.3996,3.04657 6.75589,4.22805 l 3.53832,-4.45605 c 0.39798,-0.50121 1.51731,-1.91086 2.84864,-0.85371 0.93194,0.74 0.279,1.56229 -0.31176,2.30627 l -10.37866,13.07056 c -0.67781,0.85362 -1.85311,2.33375 -5.05533,2.58747 -2.59969,0.17033 -5.20931,-0.24185 -5.40509,-0.39731 -0.0392,-0.0311 -0.37591,-0.29849 -0.003,-0.76837 0.24874,-0.31325 0.45189,-0.27964 0.95331,-0.25179 4.52917,0.45517 6.32631,-1.8081 6.93572,-2.57557 l 1.77227,-2.23195 c -5.70944,-2.49051 -12.10454,-4.13362 -16.95181,-5.31384 -0.84231,-0.1453 -0.92846,-0.2137 -1.19472,-0.42513 -0.75182,-0.59697 -0.55976,-1.466 -0.14934,-1.98287 0.93277,-1.17471 2.26386,-0.61576 4.07955,0.0726 2.2349,0.868 2.31321,0.93019 4.66904,1.9836 z"
           inkscape:connector-curvature="0"
           style="fill:#000000;stroke-width:0" /></g>    </g>
    <g
       id="g1701"
       transform="matrix(0.69526901,-0.54753655,0.54753655,0.69526901,-27.669721,150.27118)">
      <g
         word-spacing="normal"
         letter-spacing="normal"
         font-size-adjust="none"
         font-stretch="normal"
         font-weight="normal"
         font-variant="normal"
         font-style="normal"
         stroke-miterlimit="10.433"
         xml:space="preserve"
         transform="matrix(0.3,0,0,-0.3,-52.5,222.75)"
         id="g1699"
         style="font-style:normal;font-variant:normal;font-weight:normal;font-stretch:normal;letter-spacing:normal;word-spacing:normal;text-anchor:start;fill:none;fill-opacity:1;fill-rule:evenodd;stroke:#000000;stroke-linecap:butt;stroke-linejoin:miter;stroke-miterlimit:10.43299961;stroke-dasharray:none;stroke-dashoffset:0;stroke-opacity:1"><path
           id="path1697"
           d="m 464.83,417.71 0.14,0.01 h 0.16 0.17 0.17 l 0.19,0.01 h 0.2 l 0.21,0.01 0.22,0.01 0.22,0.01 0.23,0.01 0.24,0.01 0.25,0.02 0.25,0.02 0.25,0.02 0.53,0.05 0.53,0.07 0.55,0.07 0.54,0.1 0.54,0.11 0.54,0.12 0.26,0.07 0.26,0.08 0.25,0.08 0.25,0.08 0.24,0.09 0.24,0.1 c 3.48,1.5 3.73,4.43 3.73,5.12 0,2.2 -1.89,4.23 -5.33,4.23 v -1.09 c 2.35,0 3.69,-1.44 3.69,-3.14 0,-5.17 -7.97,-5.17 -10.01,-5.17 h -2.05 c 1.95,7.56 7.08,8.31 8.37,8.31 v 1.09 c -5.53,0 -13.04,-4.82 -13.04,-13.54 0,-5.08 2.93,-9.02 7.81,-9.02 7.12,0 11.31,5.28 11.31,5.88 0,0.29 -0.3,0.65 -0.59,0.65 -0.25,0 -0.35,-0.11 -0.66,-0.5 -3.94,-4.93 -9.36,-4.93 -9.95,-4.93 -3.89,0 -4.35,4.18 -4.35,5.78 0,0.59 0.05,2.14 0.8,5.18 z"
           inkscape:connector-curvature="0"
           style="fill:#000000;stroke-width:0" /></g>    </g>
    <g
       id="g1783"
       transform="matrix(0.82905914,-0.30960653,0.30960653,0.82905914,-7.6396618,112.20136)">
      <g
         word-spacing="normal"
         letter-spacing="normal"
         font-size-adjust="none"
         font-stretch="normal"
         font-weight="normal"
         font-variant="normal"
         font-style="normal"
         stroke-miterlimit="10.433"
         xml:space="preserve"
         transform="matrix(0.3,0,0,-0.3,-52.5,222.75)"
         id="g1781"
         style="font-style:normal;font-variant:normal;font-weight:normal;font-stretch:normal;letter-spacing:normal;word-spacing:normal;text-anchor:start;fill:none;fill-opacity:1;fill-rule:evenodd;stroke:#000000;stroke-linecap:butt;stroke-linejoin:miter;stroke-miterlimit:10.43299961;stroke-dasharray:none;stroke-dashoffset:0;stroke-opacity:1"><path
           id="path1779"
           d="m 471.66,435.04 0.08,-0.08 0.09,-0.07 0.09,-0.07 0.09,-0.07 0.09,-0.06 0.09,-0.06 0.09,-0.05 0.09,-0.05 0.1,-0.05 0.09,-0.04 0.1,-0.04 0.09,-0.03 0.1,-0.03 0.1,-0.03 0.09,-0.02 0.1,-0.03 0.1,-0.02 0.1,-0.01 0.2,-0.03 0.2,-0.02 0.19,-0.01 0.2,-0.01 0.2,-0.01 h 0.19 0.19 l 0.04,1.1 c -1.04,0 -1.39,0 -1.95,0.34 v 0 c 0.75,0.36 1.66,0.36 2.3,0.36 1.64,0 1.84,-0.06 2.73,-0.31 -0.39,-0.14 -0.89,-0.39 -3.08,-0.39 l -0.04,-1.1 c 1.23,0 4.42,0 4.42,1.55 0,1.23 -1.99,1.34 -3.99,1.34 -0.54,0 -1.89,0 -3.18,-0.5 -0.25,0.6 -0.35,0.85 -0.35,1.89 0,0.71 0.25,1.75 0.25,1.85 0,0.39 -0.25,0.64 -0.59,0.64 -0.91,0 -0.91,-2.28 -0.91,-2.44 0,-0.84 0.16,-1.73 0.55,-2.48 -5.23,-2.64 -13.09,-11.82 -13.09,-21.49 0,-7.01 4.53,-8.51 8.11,-9.7 1.5,-0.55 1.59,-0.55 3.04,-1.05 1.05,-0.36 3.1,-1.05 3.1,-3.39 0,-1.34 -0.96,-3.3 -2.8,-3.3 -1.3,0 -2.64,0.61 -3.69,1.5 -0.34,0.3 -0.39,0.35 -0.59,0.35 -0.25,0 -0.5,-0.19 -0.5,-0.55 0,-0.48 2.14,-2.39 4.78,-2.39 3.09,0 5.44,3.19 5.44,6.03 0,1.89 -0.96,2.94 -1.35,3.35 -0.86,0.93 -1.79,1.25 -4.73,2.23 -3.99,1.34 -4.8,1.59 -5.99,2.64 -2.09,1.89 -2.09,4.73 -2.09,5.69 0,7.72 6.08,16.44 11.11,19.12 z"
           inkscape:connector-curvature="0"
           style="fill:#000000;stroke-width:0" /></g>    </g>
    <g
       id="g1956"
       transform="matrix(0.87813685,0.10986785,-0.10986785,0.87813685,6.027805,81.43016)">
      <g
         word-spacing="normal"
         letter-spacing="normal"
         font-size-adjust="none"
         font-stretch="normal"
         font-weight="normal"
         font-variant="normal"
         font-style="normal"
         stroke-miterlimit="10.433"
         xml:space="preserve"
         transform="matrix(0.3,0,0,-0.3,-52.5,222.75)"
         id="g1954"
         style="font-style:normal;font-variant:normal;font-weight:normal;font-stretch:normal;letter-spacing:normal;word-spacing:normal;text-anchor:start;fill:none;fill-opacity:1;fill-rule:evenodd;stroke:#000000;stroke-linecap:butt;stroke-linejoin:miter;stroke-miterlimit:10.43299961;stroke-dasharray:none;stroke-dashoffset:0;stroke-opacity:1"><path
           id="path1952"
           d="m 474.16,436.34 0.04,0.16 0.04,0.16 0.04,0.15 0.04,0.15 0.04,0.13 0.05,0.13 0.05,0.13 0.05,0.11 0.06,0.12 0.06,0.1 0.08,0.1 0.08,0.09 0.09,0.09 0.1,0.08 0.11,0.08 0.12,0.07 0.13,0.06 0.15,0.06 0.16,0.06 0.18,0.05 0.09,0.02 0.1,0.02 0.1,0.02 0.11,0.02 0.11,0.02 0.11,0.02 0.12,0.02 0.13,0.01 0.13,0.01 0.14,0.02 0.14,0.01 0.14,0.01 0.15,0.01 0.16,0.01 0.16,0.01 0.17,0.01 h 0.17 l 0.18,0.01 h 0.18 l 0.19,0.01 h 0.2 0.2 0.21 0.22 c 1.49,0 1.89,0 1.89,0.96 0,0.59 -0.54,0.59 -0.79,0.59 -1.66,0 -5.74,-0.16 -7.38,-0.16 -1.5,0 -5.14,0.16 -6.62,0.16 -0.36,0 -0.96,0 -0.96,-1 0,-0.55 0.46,-0.55 1.39,-0.55 0.11,0 1.05,0 1.91,-0.09 0.89,-0.11 1.34,-0.16 1.34,-0.8 0,-0.2 -0.06,-0.36 -0.2,-0.95 l -6.67,-26.75 c -0.5,-1.95 -0.61,-2.34 -4.55,-2.34 -0.84,0 -1.34,0 -1.34,-1 0,-0.55 0.45,-0.55 1.34,-0.55 h 23.08 c 1.19,0 1.23,0 1.55,0.84 l 3.92,10.77 c 0.2,0.55 0.2,0.64 0.2,0.7 0,0.19 -0.14,0.55 -0.59,0.55 -0.46,0 -0.5,-0.25 -0.85,-1.05 -1.7,-4.59 -3.89,-10.26 -12.51,-10.26 h -4.67 c -0.71,0 -0.8,0 -1.1,0.04 -0.5,0.05 -0.65,0.1 -0.65,0.5 0,0.14 0,0.25 0.25,1.14 z"
           inkscape:connector-curvature="0"
           style="fill:#000000;stroke-width:0" /></g>    </g>
    <g
       id="g2047"
       transform="matrix(0.48770335,-0.18212952,0.18212952,0.48770335,43.649401,142.82819)">
      <g
         word-spacing="normal"
         letter-spacing="normal"
         font-size-adjust="none"
         font-stretch="normal"
         font-weight="normal"
         font-variant="normal"
         font-style="normal"
         stroke-miterlimit="10.433"
         xml:space="preserve"
         transform="matrix(0.3,0,0,-0.3,-52.5,222.75)"
         id="g2045"
         style="font-style:normal;font-variant:normal;font-weight:normal;font-stretch:normal;letter-spacing:normal;word-spacing:normal;text-anchor:start;fill:none;fill-opacity:1;fill-rule:evenodd;stroke:#000000;stroke-linecap:butt;stroke-linejoin:miter;stroke-miterlimit:10.43299961;stroke-dasharray:none;stroke-dashoffset:0;stroke-opacity:1"><path
           id="path2043"
           d="m 469.07,402.44 -0.03,-0.38 -0.04,-0.37 -0.07,-0.72 -0.07,-0.68 -0.09,-0.65 -0.09,-0.61 -0.1,-0.59 -0.1,-0.55 -0.11,-0.53 -0.12,-0.49 -0.12,-0.47 -0.13,-0.44 -0.14,-0.41 -0.14,-0.38 -0.15,-0.36 -0.16,-0.33 -0.16,-0.31 -0.17,-0.28 -0.17,-0.27 -0.18,-0.23 -0.19,-0.22 -0.2,-0.2 -0.2,-0.17 -0.21,-0.16 -0.21,-0.13 -0.22,-0.12 -0.23,-0.1 -0.23,-0.08 -0.24,-0.07 -0.24,-0.05 -0.25,-0.03 -0.26,-0.02 -0.26,-0.01 c -0.65,0 -2.15,0.14 -3.19,1.05 1.45,0.19 1.84,1.34 1.84,2.03 0,1.45 -1.09,2.09 -2.05,2.09 -0.98,0 -2.07,-0.64 -2.07,-2.14 0,-2.39 2.48,-4.12 5.47,-4.12 4.73,0 7.12,4.33 8.21,8.81 0.66,2.59 2.46,17.09 2.85,22.61 l 0.95,12.41 c 0.69,9.17 2.39,10.42 4.63,10.42 0.5,0 2.04,-0.11 3.14,-1.05 -1.44,-0.2 -1.85,-1.34 -1.85,-2.05 0,-1.43 1.1,-2.09 2.05,-2.09 1,0 2.09,0.66 2.09,2.14 0,2.39 -2.5,4.14 -5.48,4.14 -4.74,0 -6.67,-4.83 -7.52,-8.62 -0.61,-2.74 -2.39,-16.78 -2.84,-22.82 z"
           inkscape:connector-curvature="0"
           style="fill:#000000;stroke-width:0" /></g>    </g>
    <g
       id="g2331"
       transform="matrix(-1.1270167,0.18623145,-0.18623145,-1.1270167,210.09197,213.58)">
      <path
         sodipodi:nodetypes="cc"
         inkscape:connector-curvature="0"
         id="path2315"
         d="m 65.389881,45.645825 c -1.565649,0.696794 -2.708796,2.212857 -2.290785,3.77976"
         style="fill:none;stroke:#000000;stroke-width:0.26458332px;stroke-linecap:butt;stroke-linejoin:miter;stroke-opacity:1" />
      <path
         inkscape:connector-curvature="0"
         id="path2317"
         d="m 65.011905,44.13392 c -3.495627,-0.405154 -2.961748,2.423248 -4.157739,3.401785"
         style="fill:none;stroke:#000000;stroke-width:0.26458332px;stroke-linecap:butt;stroke-linejoin:miter;stroke-opacity:1" />
    </g>
    <g
       id="g2335"
       transform="matrix(1.0701153,-0.39962733,0.39962733,1.0701153,-18.323539,109.41479)">
      <g
         id="g6442"
         transform="rotate(28.691075,54.575299,72.111116)">
        <path
           style="fill:none;stroke:#000000;stroke-width:0.26458332px;stroke-linecap:butt;stroke-linejoin:miter;stroke-opacity:1"
           d="m 55.562499,69.080347 c -4.34717,1.424829 -1.832784,3.436472 -3.023809,5.669643"
           id="path2321"
           inkscape:connector-curvature="0" />
        <path
           style="fill:none;stroke:#000000;stroke-width:0.26458332px;stroke-linecap:butt;stroke-linejoin:miter;stroke-opacity:1"
           d="m 57.139255,70.638108 c -2.832007,0.713002 -1.423469,2.656759 -2.267858,4.157739"
           id="path2325"
           inkscape:connector-curvature="0"
           sodipodi:nodetypes="cc" />
      </g>
    </g>
    <g
       id="g2141"
       transform="matrix(0.50659893,-0.18918595,0.18918595,0.50659893,-4.4050345,125.37799)">
      <g
         word-spacing="normal"
         letter-spacing="normal"
         font-size-adjust="none"
         font-stretch="normal"
         font-weight="normal"
         font-variant="normal"
         font-style="normal"
         stroke-miterlimit="10.433"
         xml:space="preserve"
         transform="matrix(0.23183741,-0.19039804,-0.19039804,-0.23183741,71.210934,352.75645)"
         id="g2139"
         style="font-style:normal;font-variant:normal;font-weight:normal;font-stretch:normal;letter-spacing:normal;word-spacing:normal;text-anchor:start;fill:none;fill-opacity:1;fill-rule:evenodd;stroke:#000000;stroke-linecap:butt;stroke-linejoin:miter;stroke-miterlimit:10.43299961;stroke-dasharray:none;stroke-dashoffset:0;stroke-opacity:1"
         inkscape:transform-center-x="-0.56696429"
         inkscape:transform-center-y="-0.94494048"><path
           id="path2137"
           d="M 476.49,416.91 458.8,395.05 c -0.39,-0.5 -0.44,-0.61 -0.44,-0.8 0,-0.56 0.44,-0.56 1.35,-0.56 H 501 l 4.29,12.41 h -1.24 c -1.25,-3.74 -4.59,-6.77 -8.83,-8.22 -0.79,-0.25 -4.23,-1.44 -11.54,-1.44 h -21.19 l 17.3,21.38 c 0.34,0.43 0.45,0.59 0.45,0.79 0,0.19 -0.06,0.25 -0.36,0.69 l -16.19,22.22 h 19.74 c 5.67,0 17.12,-0.34 20.62,-9.66 h 1.24 L 501,443.52 h -41.29 c -1.35,0 -1.39,-0.05 -1.39,-1.59 z"
           inkscape:connector-curvature="0"
           style="fill:#000000;stroke-width:0" /></g>    </g>
    <path
       style="fill:none;stroke:#000000;stroke-width:0.5;stroke-linecap:butt;stroke-linejoin:miter;stroke-miterlimit:4;stroke-dasharray:none;stroke-opacity:1"
       d="m 90.913089,107.33837 c -1.175371,1.9685 2.790224,1.99305 6.882808,1.27114 4.295893,-0.75777 4.142883,-1.92674 2.625653,-2.13908 -1.517207,-0.21235 -8.441672,-0.74331 -9.508461,0.86794 z"
       id="path863-3"
       inkscape:connector-curvature="0"
       sodipodi:nodetypes="cszc" />
    <path
       style="opacity:0.203;fill:#999999;fill-opacity:1;stroke:none;stroke-width:1.02733743;stroke-linecap:round;stroke-linejoin:round;stroke-miterlimit:4;stroke-dasharray:8.21869904, 8.21869904000000062;stroke-dashoffset:0;stroke-opacity:1"
       d="m 347.06652,410.05105 c -3.40836,-1.03768 -3.18433,-3.34857 0.50508,-5.20984 2.29494,-1.15778 6.62634,-1.52884 17.84622,-1.52884 19.18642,0 21.34772,1.67835 6.52002,5.06312 -8.22523,1.8776 -21.31188,2.75924 -24.87132,1.67556 z"
       id="path6331"
       inkscape:connector-curvature="0"
       transform="scale(0.26458333)" />
    <rect
       style="opacity:1;fill:#ffffff;fill-opacity:1;stroke:none;stroke-width:0.31295866;stroke-linecap:round;stroke-linejoin:round;stroke-miterlimit:4;stroke-dasharray:2.50366932, 2.50366932;stroke-dashoffset:0;stroke-opacity:1"
       id="rect6376"
       width="4.1706018"
       height="1.900084"
       x="94.410988"
       y="165.73755"
       transform="matrix(0.99312096,-0.11709295,0.10409099,0.99456778,0,0)" />
    <g
       id="g2558"
       transform="rotate(174.76632,125.87029,114.54904)">
      <path
         sodipodi:nodetypes="ccssc"
         inkscape:connector-curvature="0"
         id="path867"
         d="m 194.80468,80.733766 c 0.60542,-0.899232 -0.54537,-2.70081 -1.45532,-2.793705 -6.78498,-1.994795 -25.37585,-2.799124 -35.17664,-2.623097 -12.93475,0.232315 -16.25815,0.063 -23.76827,0.944941 -7.45583,0.875569 -13.30003,0.71947 -12.69296,3.743077"
         style="fill:none;stroke:#000000;stroke-width:0.5;stroke-linecap:butt;stroke-linejoin:miter;stroke-miterlimit:4;stroke-dasharray:none;stroke-opacity:1" />
      <path
         sodipodi:nodetypes="ccc"
         inkscape:connector-curvature="0"
         id="path869"
         d="m 121.70833,79.852679 c 0.1454,9.828874 21.81112,24.844331 25.5134,31.183031 1.26024,3.59276 2.26785,2.36126 2.45685,12.89941"
         style="fill:none;stroke:#000000;stroke-width:0.5;stroke-linecap:butt;stroke-linejoin:miter;stroke-miterlimit:4;stroke-dasharray:none;stroke-opacity:1" />
      <path
         sodipodi:nodetypes="cc"
         inkscape:connector-curvature="0"
         id="path873"
         d="m 194.84187,80.608631 c -3.92328,5.602885 -33.68136,19.767349 -34.39099,43.656249"
         style="fill:none;stroke:#000000;stroke-width:0.5;stroke-linecap:butt;stroke-linejoin:miter;stroke-miterlimit:4;stroke-dasharray:none;stroke-opacity:1" />
    </g>
    <path
       style="opacity:1;fill:#cccccc;fill-opacity:1;stroke:none;stroke-width:1.02733743;stroke-linecap:round;stroke-linejoin:round;stroke-miterlimit:4;stroke-dasharray:8.21869904, 8.21869904000000062;stroke-dashoffset:0;stroke-opacity:1"
       d="m 241.0005,593.56726 c -6.17128,-0.73987 -7.9976,-1.38175 -9.84899,-3.46151 -1.25006,-1.40426 -2.27284,-3.14571 -2.27284,-3.86988 0,-2.32338 7.81358,-10.30347 28.64624,-29.25666 11.19039,-10.18084 25.01473,-23.36723 30.72076,-29.30309 35.04395,-36.45545 52.64462,-70.26617 55.36969,-106.36467 l 0.68713,-9.10218 4.57835,0.85533 c 5.11317,0.95524 20.00237,-0.53216 27.29401,-2.72662 5.36314,-1.61407 6.2459,-1.27822 6.25023,2.37791 0.005,4.1439 2.95537,20.11371 4.62415,25.02897 2.91348,8.58146 9.42719,18.24955 17.39003,25.81146 4.3068,4.08995 17.36558,14.93041 29.01953,24.08992 48.47299,38.09774 63.98355,54.65263 68.01476,72.5942 1.14646,5.10254 -0.2402,7.35878 -5.91907,9.63102 -4.91966,1.96845 -43.93661,10.04154 -61.61484,12.74886 -22.88849,3.50525 -80.43884,9.35862 -109.09648,11.09605 -20.0366,1.21477 -73.25609,1.12012 -83.84266,-0.14911 z"
       id="path6329"
       inkscape:connector-curvature="0"
       transform="scale(0.26458333)" />
    <g
       id="g6511"
       transform="matrix(1.8117248,0,0,1.8117248,-146.75833,-200.7006)">
      <path
         sodipodi:nodetypes="cscccc"
         inkscape:connector-curvature="0"
         id="path924-7"
         d="m 140.20699,212.61742 c -2.11873,-0.0846 -12.35311,-0.25485 -13.83488,1.5913 -1.82189,2.26984 -2.43609,6.45403 0.39465,7.68244 3.9739,1.72448 9.82932,0.85067 13.55479,0.0463 3.53081,-0.76233 22.99828,-1.41751 18.81901,-10.62543 -0.74027,-2.32206 -16.457,1.16241 -18.93357,1.3054 z"
         style="fill:#ffffff;stroke:none;stroke-width:0.30265036px;stroke-linecap:butt;stroke-linejoin:miter;stroke-opacity:1" />
      <g
         transform="translate(38.364583,9.260416)"
         id="g936">
        <g
           id="flowRoot875"
           style="font-style:normal;font-weight:normal;font-size:40px;line-height:1.25;font-family:sans-serif;letter-spacing:0px;word-spacing:0px;fill:#000000;fill-opacity:1;stroke:none"
           transform="matrix(0.26458333,0,0,0.26458333,-32.694941,123.40923)"
           aria-label="numberdb">
          <path
             inkscape:connector-curvature="0"
             id="path894"
             style="font-style:normal;font-variant:normal;font-weight:normal;font-stretch:normal;font-size:24px;font-family:'Tlwg Mono';-inkscape-font-specification:'Tlwg Mono'"
             d="m 462.13672,318.01758 c -0.68365,0.90541 0.003,2.0206 0.006,3.01367 0.0469,1.45052 0.0937,2.90104 0.14062,4.35156 -0.39768,0.71677 -0.62965,2.0219 0.33614,2.38917 0.77655,0.18404 1.23278,-0.75994 1.09635,-1.42073 -0.11174,-0.85557 -0.58457,-1.6336 -0.50671,-2.52429 -0.009,-1.18646 0.26812,-2.39409 0.8418,-3.43438 0.80835,-1.2345 2.55856,-1.76848 3.87756,-1.04345 1.08,0.48428 1.72994,1.66547 1.66738,2.83283 0.18527,1.57499 0.22213,3.19146 -0.15822,4.74187 -0.16548,1.18547 2.03242,1.33367 1.82678,0.0516 0.0374,-1.05254 -0.75103,-1.97448 -0.59045,-3.03986 -10e-4,-1.64888 0.0652,-3.56329 -1.19922,-4.81836 -1.05145,-0.96969 -2.60665,-1.14295 -3.95508,-0.82813 -0.7146,0.51864 -1.86543,0.99511 -2.60156,0.26563 -0.2053,-0.22854 -0.39735,-0.67324 -0.78125,-0.53711 z" />
          <path
             inkscape:connector-curvature="0"
             id="path896"
             style="font-style:normal;font-variant:normal;font-weight:normal;font-stretch:normal;font-size:24px;font-family:'Tlwg Mono';-inkscape-font-specification:'Tlwg Mono'"
             d="m 484.01953,318.31641 c -0.74604,0.93101 -0.2339,2.1637 0.0391,3.17032 0.45764,1.92064 -0.3409,4.17459 -2.11135,5.14999 -1.00541,0.34807 -2.19751,0.65733 -3.17774,0.0684 -1.25295,-1.28223 -1.12884,-3.20166 -1.22656,-4.85742 -0.0885,-0.97119 0.0529,-1.99069 -0.33789,-2.91211 -0.97336,-0.50063 -1.89222,1.0945 -1.10352,1.77148 0.96296,1.93308 0.20487,4.29451 1.33985,6.16992 1.08213,1.53392 3.43639,1.67453 4.89062,0.60547 0.95764,-0.4924 1.97671,0.44207 2.94922,0.043 0.65678,-0.87999 0.0709,-1.97303 -0.071,-2.91893 -0.31382,-1.96322 0.12955,-4.00124 -0.46809,-5.92677 -0.17785,-0.1982 -0.4207,-0.48595 -0.72266,-0.36328 z" />
          <path
             inkscape:connector-curvature="0"
             id="path898"
             style="font-style:normal;font-variant:normal;font-weight:normal;font-stretch:normal;font-size:24px;font-family:'Tlwg Mono';-inkscape-font-specification:'Tlwg Mono'"
             d="m 497.76562,317.54492 c -2.17073,0.91267 -4.57969,0.46946 -6.8496,0.84766 -1.06028,0.41908 -1.38656,1.72584 -1.23438,2.75781 0.0483,1.69723 -0.0576,3.41814 -0.55469,5.05078 -0.14909,0.83808 0.9946,1.16277 1.5625,0.73242 0.63078,-0.66878 0.0119,-1.71808 0.17286,-2.55389 -0.0297,-1.70405 0.18153,-3.54541 1.24707,-4.93634 0.62453,-0.82158 1.94218,-0.35254 2.23437,0.52539 0.26073,0.97681 0.21513,2.01139 0.27344,3.01563 -0.20919,0.86422 -0.70387,2.33265 0.61523,2.54687 0.95171,-0.28291 0.6843,-1.5205 0.62654,-2.27794 -0.17538,-1.60579 0.50996,-3.19698 1.46331,-4.45839 0.92491,-0.63402 2.37256,0.27683 2.21679,1.38281 -0.01,1.72871 -0.006,3.45798 -0.0781,5.18555 0.59796,1.13258 2.3677,-0.18927 1.55276,-1.16532 -0.42802,-1.00575 -0.49833,-2.09209 -0.55276,-3.16866 -0.0963,-1.16551 -0.2913,-2.5891 -1.39453,-3.24024 -0.39591,-0.21616 -0.85587,-0.27899 -1.30079,-0.24414 z" />
          <path
             inkscape:connector-curvature="0"
             id="path900"
             style="font-style:normal;font-variant:normal;font-weight:normal;font-stretch:normal;font-size:24px;font-family:'Tlwg Mono';-inkscape-font-specification:'Tlwg Mono'"
             d="m 504.88086,313.05078 c -0.83283,1.65218 -0.28333,3.52945 -0.33825,5.28819 0.0457,1.51787 0.0914,3.03574 0.13708,4.55361 -0.36586,0.92213 -0.13107,2.4588 1.06406,2.55955 1.39783,0.26936 2.82715,0.10169 4.23281,-0.005 2.85988,-0.61089 4.99454,-3.64498 4.47266,-6.54688 -0.70267,-2.59318 -4.224,-3.85069 -6.40234,-2.26953 -0.80397,0.63307 -2.41057,0.49721 -2.56135,-0.70031 -0.18508,-0.93581 0.0754,-1.96109 -0.40545,-2.83289 l -0.12891,-0.0488 z m 5.8125,3.8086 c 2.05515,0.60374 3.01368,3.10821 2.41361,5.05575 -0.43446,1.62157 -2.12494,2.55392 -3.7213,2.59927 -0.86392,-0.0171 -1.99083,-0.0491 -2.53818,-0.79806 -1.37104,-2.13897 -0.30862,-5.26235 1.92993,-6.34882 0.5673,-0.35155 1.24306,-0.57226 1.91594,-0.50814 z" />
          <path
             inkscape:connector-curvature="0"
             id="path902"
             style="font-style:normal;font-variant:normal;font-weight:normal;font-stretch:normal;font-size:24px;font-family:'Tlwg Mono';-inkscape-font-specification:'Tlwg Mono'"
             d="m 522.46289,313.51172 c -2.1525,1.03941 -3.43121,3.19908 -4.43945,5.26953 -0.35078,1.50039 0.84719,2.86812 2.13867,3.44531 1.92417,0.95378 4.29431,0.87858 6.18555,-0.12109 -0.84886,-0.51287 -1.94753,-0.48812 -2.82422,-0.0566 -1.21896,0.22058 -2.49387,0.0103 -3.60938,-0.51563 -0.78134,-0.75139 -0.21684,-2.28913 0.85352,-2.38476 1.94277,-0.52994 3.91074,-0.95841 5.87304,-1.40821 1.2283,-0.56521 1.18793,-2.65107 -0.0898,-3.13281 -1.18797,-0.6929 -2.54585,-1.07291 -3.91601,-1.15234 z m 1.99219,0.92383 c 0.77148,0.59375 1.54297,1.1875 2.31445,1.78125 -2.09896,0.67578 -4.19792,1.35156 -6.29687,2.02734 -1.13742,-0.012 -1.43423,-1.89183 -0.38086,-2.2832 1.27782,-0.63243 2.57254,-1.25955 3.95508,-1.62891 0.13606,0.0345 0.27213,0.069 0.4082,0.10352 z" />
          <path
             inkscape:connector-curvature="0"
             id="path904"
             style="font-style:normal;font-variant:normal;font-weight:normal;font-stretch:normal;font-size:24px;font-family:'Tlwg Mono';-inkscape-font-specification:'Tlwg Mono'"
             d="m 539.20898,310.38281 c -0.97246,0.51893 -1.79626,1.29502 -2.82812,1.70508 -0.9863,-0.17063 -2.20535,0.60171 -2.08984,1.6875 0.0587,1.72991 0.17867,3.48311 -0.17579,5.19141 -0.13936,1.01073 0.62194,2.22487 1.72657,2.16211 1.12012,-0.23872 1.36024,-2.00244 0.37109,-2.55664 -0.92568,-1.33742 -0.47194,-3.10923 0.26953,-4.41993 0.55737,-1.19236 1.52017,-2.19296 2.70703,-2.76757 0.30555,-0.16753 0.66967,-1.10283 0.0195,-1.00196 z" />
          <path
             inkscape:connector-curvature="0"
             id="path906"
             style="font-style:normal;font-variant:normal;font-weight:normal;font-stretch:normal;font-size:24px;font-family:'Tlwg Mono';-inkscape-font-specification:'Tlwg Mono'"
             d="m 553.51172,303.55273 c -0.65412,0.80677 -0.3691,1.94483 -0.15864,2.86812 0.42394,1.10152 -0.83632,2.21821 -1.90581,1.97368 -1.87715,-0.18638 -4.05275,0.24183 -5.22493,1.85276 -1.58485,2.11562 -1.42812,5.32206 0.33625,7.28591 1.47656,0.97822 3.53963,0.93526 4.98438,-0.084 0.97622,-0.28071 2.03625,-0.27303 2.95117,-0.75391 0.19131,-3.9724 -0.32867,-7.93499 -0.26172,-11.90625 -0.0717,-0.37188 -0.15093,-1.42845 -0.7207,-1.23633 z m -3.38086,5.79297 c 2.11155,0.54463 3.23677,3.05939 2.69364,5.0825 -0.38668,1.61372 -1.94316,2.86926 -3.61863,2.80623 -1.35465,0.0498 -2.61277,-0.90074 -2.99641,-2.19049 -0.75544,-2.32557 0.81604,-5.02308 3.1382,-5.66894 0.2625,-0.0541 0.51733,-0.0622 0.7832,-0.0293 z" />
          <path
             inkscape:connector-curvature="0"
             id="path908"
             style="font-style:normal;font-variant:normal;font-weight:normal;font-stretch:normal;font-size:24px;font-family:'Tlwg Mono';-inkscape-font-specification:'Tlwg Mono'"
             d="m 558.80273,303.1543 c -0.57563,1.53389 -7.8e-4,3.16258 -0.0669,4.74116 0.0913,1.79982 0.18262,3.59964 0.27394,5.39946 -0.2231,0.96064 -0.38753,2.40908 0.77145,2.8227 1.23591,0.54249 2.61581,0.37317 3.91995,0.57769 3.09177,0.013 5.7314,-3.25653 4.96485,-6.27539 -0.62959,-2.61556 -3.7954,-4.38061 -6.30469,-3.25 -0.81736,0.37828 -2.12765,0.34975 -2.48828,-0.64062 -0.42427,-1.04765 -0.18219,-2.2719 -0.78321,-3.26172 -0.0737,-0.0706 -0.17951,-0.1364 -0.28711,-0.11328 z m 5.81446,4.38476 c 2.35182,1.13219 3.49744,4.19872 2.5,6.60352 -1.73298,1.67474 -4.79211,1.6836 -6.50391,-0.0274 -0.76316,-2.64643 0.85925,-5.70923 3.4668,-6.58398 0.17903,0.003 0.35807,0.005 0.53711,0.008 z" />
        </g>
        <path
           style="fill:none;stroke:#000000;stroke-width:0.26458332px;stroke-linecap:butt;stroke-linejoin:miter;stroke-opacity:1"
           d="m 101.76287,204.12384 c -1.997832,0 -11.638927,0.193 -12.962571,1.73725 -1.62745,1.89869 -2.044089,5.30993 0.668173,6.21401 3.807579,1.2692 9.286063,0.37156 12.762118,-0.4009 3.29444,-0.73209 21.5956,-1.89279 17.30571,-9.2208 -0.78655,-1.85814 -15.44754,1.47445 -17.77343,1.67044 z"
           id="path924"
           inkscape:connector-curvature="0"
           sodipodi:nodetypes="cscccc" />
      </g>
    </g>
  </g>
</svg>
